<svg xmlns="http://www.w3.org/2000/svg" viewBox="0 0 32 32" role="img" aria-label="OpenAI Codex">
  <rect width="32" height="32" rx="8" fill="#0c1815"/>
  <path fill="none" stroke="#10a37f" stroke-width="2.25" stroke-linecap="round" stroke-linejoin="round" d="M16 5.8c2 0 3.6 1 4.6 2.5 1.8-.2 3.7.6 4.7 2.3 1 1.7.8 3.7-.2 5.1 1.1 1.5 1.3 3.5.3 5.2-1 1.7-2.9 2.5-4.7 2.3-1 1.5-2.6 2.5-4.6 2.5s-3.6-1-4.6-2.5c-1.8.2-3.7-.6-4.7-2.3-1-1.7-.8-3.7.2-5.2-1.1-1.4-1.3-3.4-.3-5.1 1-1.7 2.9-2.5 4.7-2.3C12.4 6.8 14 5.8 16 5.8Z"/>
  <path fill="none" stroke="#a7f3d0" stroke-width="1.7" stroke-linecap="round" d="M11.4 8.3 20.8 14v10M20.6 8.3 11.2 14v10M7 15.7l9-5.3 9 5.3M7 16.2l9 5.3 9-5.3"/>
</svg>
